<svg xmlns="http://www.w3.org/2000/svg" viewBox="0 0 64 64" fill="none">
  <rect width="64" height="64" rx="12" fill="#111111"/>
  <path d="M12 12h8v8h-8zM28 12h8v8h-8zM44 12h8v8h-8zM20 20h8v8h-8zM36 20h8v8h-8z" fill="#F5F5F5"/>
  <path d="M12 20h8v8h-8zM28 20h8v8h-8zM44 20h8v8h-8zM20 12h8v8h-8zM36 12h8v8h-8z" fill="#111111"/>
  <path d="M16 36c0-2 1-3 3-3h26c2 0 3 1 3 3v6c0 8-6 14-16 14S16 50 16 42v-6z" fill="#DC2626"/>
  <circle cx="24" cy="46" r="5" fill="#111111"/>
  <circle cx="40" cy="46" r="5" fill="#111111"/>
  <circle cx="24" cy="46" r="2" fill="#F5F5F5"/>
  <circle cx="40" cy="46" r="2" fill="#F5F5F5"/>
  <path d="M20 36h24v3H20z" fill="#F59E0B" opacity="0.9"/>
</svg>
